%TF.GenerationSoftware,KiCad,Pcbnew,(6.0.10)*%
%TF.CreationDate,2023-04-06T15:57:07+02:00*%
%TF.ProjectId,616_buffer,3631365f-6275-4666-9665-722e6b696361,rev?*%
%TF.SameCoordinates,Original*%
%TF.FileFunction,Soldermask,Top*%
%TF.FilePolarity,Negative*%
%FSLAX46Y46*%
G04 Gerber Fmt 4.6, Leading zero omitted, Abs format (unit mm)*
G04 Created by KiCad (PCBNEW (6.0.10)) date 2023-04-06 15:57:07*
%MOMM*%
%LPD*%
G01*
G04 APERTURE LIST*
G04 Aperture macros list*
%AMRoundRect*
0 Rectangle with rounded corners*
0 $1 Rounding radius*
0 $2 $3 $4 $5 $6 $7 $8 $9 X,Y pos of 4 corners*
0 Add a 4 corners polygon primitive as box body*
4,1,4,$2,$3,$4,$5,$6,$7,$8,$9,$2,$3,0*
0 Add four circle primitives for the rounded corners*
1,1,$1+$1,$2,$3*
1,1,$1+$1,$4,$5*
1,1,$1+$1,$6,$7*
1,1,$1+$1,$8,$9*
0 Add four rect primitives between the rounded corners*
20,1,$1+$1,$2,$3,$4,$5,0*
20,1,$1+$1,$4,$5,$6,$7,0*
20,1,$1+$1,$6,$7,$8,$9,0*
20,1,$1+$1,$8,$9,$2,$3,0*%
G04 Aperture macros list end*
%ADD10C,1.600000*%
%ADD11RoundRect,0.254065X0.995935X2.745935X-0.995935X2.745935X-0.995935X-2.745935X0.995935X-2.745935X0*%
%ADD12O,1.600000X1.600000*%
%ADD13RoundRect,0.250000X0.250000X0.475000X-0.250000X0.475000X-0.250000X-0.475000X0.250000X-0.475000X0*%
%ADD14RoundRect,0.250000X-0.450000X0.262500X-0.450000X-0.262500X0.450000X-0.262500X0.450000X0.262500X0*%
%ADD15RoundRect,0.250000X-0.475000X0.250000X-0.475000X-0.250000X0.475000X-0.250000X0.475000X0.250000X0*%
%ADD16RoundRect,0.250000X0.450000X-0.262500X0.450000X0.262500X-0.450000X0.262500X-0.450000X-0.262500X0*%
%ADD17RoundRect,0.150000X-0.825000X-0.150000X0.825000X-0.150000X0.825000X0.150000X-0.825000X0.150000X0*%
%ADD18RoundRect,0.250000X0.475000X-0.250000X0.475000X0.250000X-0.475000X0.250000X-0.475000X-0.250000X0*%
%ADD19RoundRect,0.250000X0.262500X0.450000X-0.262500X0.450000X-0.262500X-0.450000X0.262500X-0.450000X0*%
%ADD20C,2.000000*%
%ADD21RoundRect,0.250000X-0.262500X-0.450000X0.262500X-0.450000X0.262500X0.450000X-0.262500X0.450000X0*%
%ADD22R,1.700000X1.700000*%
%ADD23O,1.700000X1.700000*%
%ADD24RoundRect,0.150000X0.825000X0.150000X-0.825000X0.150000X-0.825000X-0.150000X0.825000X-0.150000X0*%
G04 APERTURE END LIST*
D10*
%TO.C,J2*%
X143480000Y-141630000D03*
D11*
X141980000Y-144880000D03*
X138020000Y-144880000D03*
X134060000Y-144880000D03*
X130100000Y-144880000D03*
X126140000Y-144880000D03*
X122180000Y-144880000D03*
%TD*%
D10*
%TO.C,R3*%
X134874000Y-109220000D03*
D12*
X145034000Y-109220000D03*
%TD*%
D13*
%TO.C,C2*%
X141600000Y-132588000D03*
X139700000Y-132588000D03*
%TD*%
D14*
%TO.C,R1*%
X120650000Y-121515500D03*
X120650000Y-123340500D03*
%TD*%
D15*
%TO.C,C7*%
X122936000Y-116464000D03*
X122936000Y-118364000D03*
%TD*%
D16*
%TO.C,R6*%
X159258000Y-114300000D03*
X159258000Y-112475000D03*
%TD*%
D10*
%TO.C,R5*%
X135636000Y-122936000D03*
D12*
X135636000Y-112776000D03*
%TD*%
D14*
%TO.C,R12*%
X120650000Y-116586000D03*
X120650000Y-118411000D03*
%TD*%
D17*
%TO.C,U3*%
X150433000Y-112649000D03*
X150433000Y-113919000D03*
X150433000Y-115189000D03*
X150433000Y-116459000D03*
X155383000Y-116459000D03*
X155383000Y-115189000D03*
X155383000Y-113919000D03*
X155383000Y-112649000D03*
%TD*%
D14*
%TO.C,R10*%
X136144000Y-128524000D03*
X136144000Y-130349000D03*
%TD*%
D18*
%TO.C,C6*%
X122936000Y-123444000D03*
X122936000Y-121544000D03*
%TD*%
D19*
%TO.C,R8*%
X131365000Y-126365000D03*
X129540000Y-126365000D03*
%TD*%
D20*
%TO.C,J3*%
X141732000Y-116840000D03*
%TD*%
D19*
%TO.C,R7*%
X127000000Y-126365000D03*
X125175000Y-126365000D03*
%TD*%
D21*
%TO.C,R4*%
X145495000Y-115316000D03*
X147320000Y-115316000D03*
%TD*%
D13*
%TO.C,C3*%
X131445000Y-129540000D03*
X129545000Y-129540000D03*
%TD*%
%TO.C,C1*%
X131491252Y-132753748D03*
X129591252Y-132753748D03*
%TD*%
D16*
%TO.C,R2*%
X125222000Y-118260500D03*
X125222000Y-116435500D03*
%TD*%
D17*
%TO.C,U2*%
X139257000Y-126111000D03*
X139257000Y-127381000D03*
X139257000Y-128651000D03*
X139257000Y-129921000D03*
X144207000Y-129921000D03*
X144207000Y-128651000D03*
X144207000Y-127381000D03*
X144207000Y-126111000D03*
%TD*%
D22*
%TO.C,J1*%
X114808000Y-121920000D03*
D23*
X114808000Y-119380000D03*
X114808000Y-116840000D03*
%TD*%
D16*
%TO.C,R11*%
X125105000Y-123340500D03*
X125105000Y-121515500D03*
%TD*%
D19*
%TO.C,R9*%
X136445000Y-132588000D03*
X134620000Y-132588000D03*
%TD*%
D24*
%TO.C,U1*%
X126935000Y-133350000D03*
X126935000Y-132080000D03*
X126935000Y-130810000D03*
X126935000Y-129540000D03*
X121985000Y-129540000D03*
X121985000Y-130810000D03*
X121985000Y-132080000D03*
X121985000Y-133350000D03*
%TD*%
D13*
%TO.C,C4*%
X136520000Y-126492000D03*
X134620000Y-126492000D03*
%TD*%
D20*
%TO.C,C5*%
X156150000Y-109220000D03*
X148650000Y-109220000D03*
%TD*%
G36*
X147850503Y-112288002D02*
G01*
X147863045Y-112297204D01*
X149338084Y-113526404D01*
X149364828Y-113538000D01*
X151839810Y-113538000D01*
X151907931Y-113558002D01*
X151928905Y-113574905D01*
X152617095Y-114263095D01*
X152651121Y-114325407D01*
X152654000Y-114352190D01*
X152654000Y-115471622D01*
X152633998Y-115539743D01*
X152580342Y-115586236D01*
X152558560Y-115593860D01*
X151653049Y-115820238D01*
X151622489Y-115824000D01*
X148862115Y-115824000D01*
X148846876Y-115828475D01*
X148845671Y-115829865D01*
X148844000Y-115837548D01*
X148844000Y-118057810D01*
X148823998Y-118125931D01*
X148807095Y-118146905D01*
X145578905Y-121375095D01*
X145516593Y-121409121D01*
X145489810Y-121412000D01*
X138992945Y-121412000D01*
X138924824Y-121391998D01*
X138900613Y-121371737D01*
X135669668Y-117892258D01*
X135637973Y-117828729D01*
X135636000Y-117806521D01*
X135636000Y-114610116D01*
X135656002Y-114541995D01*
X135677710Y-114516461D01*
X138140061Y-112300345D01*
X138204076Y-112269642D01*
X138224351Y-112268000D01*
X147782382Y-112268000D01*
X147850503Y-112288002D01*
G37*
M02*
