%TF.GenerationSoftware,KiCad,Pcbnew,(6.0.10)*%
%TF.CreationDate,2023-03-17T15:41:07+01:00*%
%TF.ProjectId,616_buffer,3631365f-6275-4666-9665-722e6b696361,rev?*%
%TF.SameCoordinates,Original*%
%TF.FileFunction,Legend,Top*%
%TF.FilePolarity,Positive*%
%FSLAX46Y46*%
G04 Gerber Fmt 4.6, Leading zero omitted, Abs format (unit mm)*
G04 Created by KiCad (PCBNEW (6.0.10)) date 2023-03-17 15:41:07*
%MOMM*%
%LPD*%
G01*
G04 APERTURE LIST*
%ADD10C,0.150000*%
%ADD11C,0.120000*%
G04 APERTURE END LIST*
D10*
%TO.C,J3*%
X141652666Y-110958380D02*
X141652666Y-111672666D01*
X141605047Y-111815523D01*
X141509809Y-111910761D01*
X141366952Y-111958380D01*
X141271714Y-111958380D01*
X142033619Y-110958380D02*
X142652666Y-110958380D01*
X142319333Y-111339333D01*
X142462190Y-111339333D01*
X142557428Y-111386952D01*
X142605047Y-111434571D01*
X142652666Y-111529809D01*
X142652666Y-111767904D01*
X142605047Y-111863142D01*
X142557428Y-111910761D01*
X142462190Y-111958380D01*
X142176476Y-111958380D01*
X142081238Y-111910761D01*
X142033619Y-111863142D01*
%TO.C,R3*%
X139787333Y-107302380D02*
X139454000Y-106826190D01*
X139215904Y-107302380D02*
X139215904Y-106302380D01*
X139596857Y-106302380D01*
X139692095Y-106350000D01*
X139739714Y-106397619D01*
X139787333Y-106492857D01*
X139787333Y-106635714D01*
X139739714Y-106730952D01*
X139692095Y-106778571D01*
X139596857Y-106826190D01*
X139215904Y-106826190D01*
X140120666Y-106302380D02*
X140739714Y-106302380D01*
X140406380Y-106683333D01*
X140549238Y-106683333D01*
X140644476Y-106730952D01*
X140692095Y-106778571D01*
X140739714Y-106873809D01*
X140739714Y-107111904D01*
X140692095Y-107207142D01*
X140644476Y-107254761D01*
X140549238Y-107302380D01*
X140263523Y-107302380D01*
X140168285Y-107254761D01*
X140120666Y-107207142D01*
%TO.C,C2*%
X140483333Y-134625142D02*
X140435714Y-134672761D01*
X140292857Y-134720380D01*
X140197619Y-134720380D01*
X140054761Y-134672761D01*
X139959523Y-134577523D01*
X139911904Y-134482285D01*
X139864285Y-134291809D01*
X139864285Y-134148952D01*
X139911904Y-133958476D01*
X139959523Y-133863238D01*
X140054761Y-133768000D01*
X140197619Y-133720380D01*
X140292857Y-133720380D01*
X140435714Y-133768000D01*
X140483333Y-133815619D01*
X140864285Y-133815619D02*
X140911904Y-133768000D01*
X141007142Y-133720380D01*
X141245238Y-133720380D01*
X141340476Y-133768000D01*
X141388095Y-133815619D01*
X141435714Y-133910857D01*
X141435714Y-134006095D01*
X141388095Y-134148952D01*
X140816666Y-134720380D01*
X141435714Y-134720380D01*
%TO.C,R1*%
X121102380Y-125388666D02*
X120626190Y-125722000D01*
X121102380Y-125960095D02*
X120102380Y-125960095D01*
X120102380Y-125579142D01*
X120150000Y-125483904D01*
X120197619Y-125436285D01*
X120292857Y-125388666D01*
X120435714Y-125388666D01*
X120530952Y-125436285D01*
X120578571Y-125483904D01*
X120626190Y-125579142D01*
X120626190Y-125960095D01*
X121102380Y-124436285D02*
X121102380Y-125007714D01*
X121102380Y-124722000D02*
X120102380Y-124722000D01*
X120245238Y-124817238D01*
X120340476Y-124912476D01*
X120388095Y-125007714D01*
%TO.C,C7*%
X123293142Y-114720666D02*
X123340761Y-114768285D01*
X123388380Y-114911142D01*
X123388380Y-115006380D01*
X123340761Y-115149238D01*
X123245523Y-115244476D01*
X123150285Y-115292095D01*
X122959809Y-115339714D01*
X122816952Y-115339714D01*
X122626476Y-115292095D01*
X122531238Y-115244476D01*
X122436000Y-115149238D01*
X122388380Y-115006380D01*
X122388380Y-114911142D01*
X122436000Y-114768285D01*
X122483619Y-114720666D01*
X122388380Y-114387333D02*
X122388380Y-113720666D01*
X123388380Y-114149238D01*
%TO.C,R6*%
X159964380Y-116752666D02*
X159488190Y-117086000D01*
X159964380Y-117324095D02*
X158964380Y-117324095D01*
X158964380Y-116943142D01*
X159012000Y-116847904D01*
X159059619Y-116800285D01*
X159154857Y-116752666D01*
X159297714Y-116752666D01*
X159392952Y-116800285D01*
X159440571Y-116847904D01*
X159488190Y-116943142D01*
X159488190Y-117324095D01*
X158964380Y-115895523D02*
X158964380Y-116086000D01*
X159012000Y-116181238D01*
X159059619Y-116228857D01*
X159202476Y-116324095D01*
X159392952Y-116371714D01*
X159773904Y-116371714D01*
X159869142Y-116324095D01*
X159916761Y-116276476D01*
X159964380Y-116181238D01*
X159964380Y-115990761D01*
X159916761Y-115895523D01*
X159869142Y-115847904D01*
X159773904Y-115800285D01*
X159535809Y-115800285D01*
X159440571Y-115847904D01*
X159392952Y-115895523D01*
X159345333Y-115990761D01*
X159345333Y-116181238D01*
X159392952Y-116276476D01*
X159440571Y-116324095D01*
X159535809Y-116371714D01*
%TO.C,R5*%
X133718380Y-118022666D02*
X133242190Y-118356000D01*
X133718380Y-118594095D02*
X132718380Y-118594095D01*
X132718380Y-118213142D01*
X132766000Y-118117904D01*
X132813619Y-118070285D01*
X132908857Y-118022666D01*
X133051714Y-118022666D01*
X133146952Y-118070285D01*
X133194571Y-118117904D01*
X133242190Y-118213142D01*
X133242190Y-118594095D01*
X132718380Y-117117904D02*
X132718380Y-117594095D01*
X133194571Y-117641714D01*
X133146952Y-117594095D01*
X133099333Y-117498857D01*
X133099333Y-117260761D01*
X133146952Y-117165523D01*
X133194571Y-117117904D01*
X133289809Y-117070285D01*
X133527904Y-117070285D01*
X133623142Y-117117904D01*
X133670761Y-117165523D01*
X133718380Y-117260761D01*
X133718380Y-117498857D01*
X133670761Y-117594095D01*
X133623142Y-117641714D01*
%TO.C,R12*%
X121102380Y-114942857D02*
X120626190Y-115276190D01*
X121102380Y-115514285D02*
X120102380Y-115514285D01*
X120102380Y-115133333D01*
X120150000Y-115038095D01*
X120197619Y-114990476D01*
X120292857Y-114942857D01*
X120435714Y-114942857D01*
X120530952Y-114990476D01*
X120578571Y-115038095D01*
X120626190Y-115133333D01*
X120626190Y-115514285D01*
X121102380Y-113990476D02*
X121102380Y-114561904D01*
X121102380Y-114276190D02*
X120102380Y-114276190D01*
X120245238Y-114371428D01*
X120340476Y-114466666D01*
X120388095Y-114561904D01*
X120197619Y-113609523D02*
X120150000Y-113561904D01*
X120102380Y-113466666D01*
X120102380Y-113228571D01*
X120150000Y-113133333D01*
X120197619Y-113085714D01*
X120292857Y-113038095D01*
X120388095Y-113038095D01*
X120530952Y-113085714D01*
X121102380Y-113657142D01*
X121102380Y-113038095D01*
%TO.C,U3*%
X152400095Y-118832380D02*
X152400095Y-119641904D01*
X152447714Y-119737142D01*
X152495333Y-119784761D01*
X152590571Y-119832380D01*
X152781047Y-119832380D01*
X152876285Y-119784761D01*
X152923904Y-119737142D01*
X152971523Y-119641904D01*
X152971523Y-118832380D01*
X153352476Y-118832380D02*
X153971523Y-118832380D01*
X153638190Y-119213333D01*
X153781047Y-119213333D01*
X153876285Y-119260952D01*
X153923904Y-119308571D01*
X153971523Y-119403809D01*
X153971523Y-119641904D01*
X153923904Y-119737142D01*
X153876285Y-119784761D01*
X153781047Y-119832380D01*
X153495333Y-119832380D01*
X153400095Y-119784761D01*
X153352476Y-119737142D01*
%TO.C,R10*%
X134564380Y-130182857D02*
X134088190Y-130516190D01*
X134564380Y-130754285D02*
X133564380Y-130754285D01*
X133564380Y-130373333D01*
X133612000Y-130278095D01*
X133659619Y-130230476D01*
X133754857Y-130182857D01*
X133897714Y-130182857D01*
X133992952Y-130230476D01*
X134040571Y-130278095D01*
X134088190Y-130373333D01*
X134088190Y-130754285D01*
X134564380Y-129230476D02*
X134564380Y-129801904D01*
X134564380Y-129516190D02*
X133564380Y-129516190D01*
X133707238Y-129611428D01*
X133802476Y-129706666D01*
X133850095Y-129801904D01*
X133564380Y-128611428D02*
X133564380Y-128516190D01*
X133612000Y-128420952D01*
X133659619Y-128373333D01*
X133754857Y-128325714D01*
X133945333Y-128278095D01*
X134183428Y-128278095D01*
X134373904Y-128325714D01*
X134469142Y-128373333D01*
X134516761Y-128420952D01*
X134564380Y-128516190D01*
X134564380Y-128611428D01*
X134516761Y-128706666D01*
X134469142Y-128754285D01*
X134373904Y-128801904D01*
X134183428Y-128849523D01*
X133945333Y-128849523D01*
X133754857Y-128801904D01*
X133659619Y-128754285D01*
X133612000Y-128706666D01*
X133564380Y-128611428D01*
%TO.C,C6*%
X123293142Y-125388666D02*
X123340761Y-125436285D01*
X123388380Y-125579142D01*
X123388380Y-125674380D01*
X123340761Y-125817238D01*
X123245523Y-125912476D01*
X123150285Y-125960095D01*
X122959809Y-126007714D01*
X122816952Y-126007714D01*
X122626476Y-125960095D01*
X122531238Y-125912476D01*
X122436000Y-125817238D01*
X122388380Y-125674380D01*
X122388380Y-125579142D01*
X122436000Y-125436285D01*
X122483619Y-125388666D01*
X122388380Y-124531523D02*
X122388380Y-124722000D01*
X122436000Y-124817238D01*
X122483619Y-124864857D01*
X122626476Y-124960095D01*
X122816952Y-125007714D01*
X123197904Y-125007714D01*
X123293142Y-124960095D01*
X123340761Y-124912476D01*
X123388380Y-124817238D01*
X123388380Y-124626761D01*
X123340761Y-124531523D01*
X123293142Y-124483904D01*
X123197904Y-124436285D01*
X122959809Y-124436285D01*
X122864571Y-124483904D01*
X122816952Y-124531523D01*
X122769333Y-124626761D01*
X122769333Y-124817238D01*
X122816952Y-124912476D01*
X122864571Y-124960095D01*
X122959809Y-125007714D01*
%TO.C,R8*%
X130512897Y-124658380D02*
X130179564Y-124182190D01*
X129941468Y-124658380D02*
X129941468Y-123658380D01*
X130322421Y-123658380D01*
X130417659Y-123706000D01*
X130465278Y-123753619D01*
X130512897Y-123848857D01*
X130512897Y-123991714D01*
X130465278Y-124086952D01*
X130417659Y-124134571D01*
X130322421Y-124182190D01*
X129941468Y-124182190D01*
X131084325Y-124086952D02*
X130989087Y-124039333D01*
X130941468Y-123991714D01*
X130893849Y-123896476D01*
X130893849Y-123848857D01*
X130941468Y-123753619D01*
X130989087Y-123706000D01*
X131084325Y-123658380D01*
X131274802Y-123658380D01*
X131370040Y-123706000D01*
X131417659Y-123753619D01*
X131465278Y-123848857D01*
X131465278Y-123896476D01*
X131417659Y-123991714D01*
X131370040Y-124039333D01*
X131274802Y-124086952D01*
X131084325Y-124086952D01*
X130989087Y-124134571D01*
X130941468Y-124182190D01*
X130893849Y-124277428D01*
X130893849Y-124467904D01*
X130941468Y-124563142D01*
X130989087Y-124610761D01*
X131084325Y-124658380D01*
X131274802Y-124658380D01*
X131370040Y-124610761D01*
X131417659Y-124563142D01*
X131465278Y-124467904D01*
X131465278Y-124277428D01*
X131417659Y-124182190D01*
X131370040Y-124134571D01*
X131274802Y-124086952D01*
%TO.C,R7*%
X125920833Y-128467380D02*
X125587500Y-127991190D01*
X125349404Y-128467380D02*
X125349404Y-127467380D01*
X125730357Y-127467380D01*
X125825595Y-127515000D01*
X125873214Y-127562619D01*
X125920833Y-127657857D01*
X125920833Y-127800714D01*
X125873214Y-127895952D01*
X125825595Y-127943571D01*
X125730357Y-127991190D01*
X125349404Y-127991190D01*
X126254166Y-127467380D02*
X126920833Y-127467380D01*
X126492261Y-128467380D01*
%TO.C,R4*%
X145629333Y-111958380D02*
X145296000Y-111482190D01*
X145057904Y-111958380D02*
X145057904Y-110958380D01*
X145438857Y-110958380D01*
X145534095Y-111006000D01*
X145581714Y-111053619D01*
X145629333Y-111148857D01*
X145629333Y-111291714D01*
X145581714Y-111386952D01*
X145534095Y-111434571D01*
X145438857Y-111482190D01*
X145057904Y-111482190D01*
X146486476Y-111291714D02*
X146486476Y-111958380D01*
X146248380Y-110910761D02*
X146010285Y-111625047D01*
X146629333Y-111625047D01*
%TO.C,C3*%
X130135333Y-128373142D02*
X130087714Y-128420761D01*
X129944857Y-128468380D01*
X129849619Y-128468380D01*
X129706761Y-128420761D01*
X129611523Y-128325523D01*
X129563904Y-128230285D01*
X129516285Y-128039809D01*
X129516285Y-127896952D01*
X129563904Y-127706476D01*
X129611523Y-127611238D01*
X129706761Y-127516000D01*
X129849619Y-127468380D01*
X129944857Y-127468380D01*
X130087714Y-127516000D01*
X130135333Y-127563619D01*
X130468666Y-127468380D02*
X131087714Y-127468380D01*
X130754380Y-127849333D01*
X130897238Y-127849333D01*
X130992476Y-127896952D01*
X131040095Y-127944571D01*
X131087714Y-128039809D01*
X131087714Y-128277904D01*
X131040095Y-128373142D01*
X130992476Y-128420761D01*
X130897238Y-128468380D01*
X130611523Y-128468380D01*
X130516285Y-128420761D01*
X130468666Y-128373142D01*
%TO.C,C1*%
X130374585Y-134790890D02*
X130326966Y-134838509D01*
X130184109Y-134886128D01*
X130088871Y-134886128D01*
X129946013Y-134838509D01*
X129850775Y-134743271D01*
X129803156Y-134648033D01*
X129755537Y-134457557D01*
X129755537Y-134314700D01*
X129803156Y-134124224D01*
X129850775Y-134028986D01*
X129946013Y-133933748D01*
X130088871Y-133886128D01*
X130184109Y-133886128D01*
X130326966Y-133933748D01*
X130374585Y-133981367D01*
X131326966Y-134886128D02*
X130755537Y-134886128D01*
X131041252Y-134886128D02*
X131041252Y-133886128D01*
X130946013Y-134028986D01*
X130850775Y-134124224D01*
X130755537Y-134171843D01*
%TO.C,J2*%
X133524666Y-137120380D02*
X133524666Y-137834666D01*
X133477047Y-137977523D01*
X133381809Y-138072761D01*
X133238952Y-138120380D01*
X133143714Y-138120380D01*
X133953238Y-137215619D02*
X134000857Y-137168000D01*
X134096095Y-137120380D01*
X134334190Y-137120380D01*
X134429428Y-137168000D01*
X134477047Y-137215619D01*
X134524666Y-137310857D01*
X134524666Y-137406095D01*
X134477047Y-137548952D01*
X133905619Y-138120380D01*
X134524666Y-138120380D01*
%TO.C,R2*%
X125674380Y-114720666D02*
X125198190Y-115054000D01*
X125674380Y-115292095D02*
X124674380Y-115292095D01*
X124674380Y-114911142D01*
X124722000Y-114815904D01*
X124769619Y-114768285D01*
X124864857Y-114720666D01*
X125007714Y-114720666D01*
X125102952Y-114768285D01*
X125150571Y-114815904D01*
X125198190Y-114911142D01*
X125198190Y-115292095D01*
X124769619Y-114339714D02*
X124722000Y-114292095D01*
X124674380Y-114196857D01*
X124674380Y-113958761D01*
X124722000Y-113863523D01*
X124769619Y-113815904D01*
X124864857Y-113768285D01*
X124960095Y-113768285D01*
X125102952Y-113815904D01*
X125674380Y-114387333D01*
X125674380Y-113768285D01*
%TO.C,U2*%
X140970095Y-124068380D02*
X140970095Y-124877904D01*
X141017714Y-124973142D01*
X141065333Y-125020761D01*
X141160571Y-125068380D01*
X141351047Y-125068380D01*
X141446285Y-125020761D01*
X141493904Y-124973142D01*
X141541523Y-124877904D01*
X141541523Y-124068380D01*
X141970095Y-124163619D02*
X142017714Y-124116000D01*
X142112952Y-124068380D01*
X142351047Y-124068380D01*
X142446285Y-124116000D01*
X142493904Y-124163619D01*
X142541523Y-124258857D01*
X142541523Y-124354095D01*
X142493904Y-124496952D01*
X141922476Y-125068380D01*
X142541523Y-125068380D01*
%TO.C,J1*%
X114474666Y-123702380D02*
X114474666Y-124416666D01*
X114427047Y-124559523D01*
X114331809Y-124654761D01*
X114188952Y-124702380D01*
X114093714Y-124702380D01*
X115474666Y-124702380D02*
X114903238Y-124702380D01*
X115188952Y-124702380D02*
X115188952Y-123702380D01*
X115093714Y-123845238D01*
X114998476Y-123940476D01*
X114903238Y-123988095D01*
%TO.C,R11*%
X127706380Y-123324857D02*
X127230190Y-123658190D01*
X127706380Y-123896285D02*
X126706380Y-123896285D01*
X126706380Y-123515333D01*
X126754000Y-123420095D01*
X126801619Y-123372476D01*
X126896857Y-123324857D01*
X127039714Y-123324857D01*
X127134952Y-123372476D01*
X127182571Y-123420095D01*
X127230190Y-123515333D01*
X127230190Y-123896285D01*
X127706380Y-122372476D02*
X127706380Y-122943904D01*
X127706380Y-122658190D02*
X126706380Y-122658190D01*
X126849238Y-122753428D01*
X126944476Y-122848666D01*
X126992095Y-122943904D01*
X127706380Y-121420095D02*
X127706380Y-121991523D01*
X127706380Y-121705809D02*
X126706380Y-121705809D01*
X126849238Y-121801047D01*
X126944476Y-121896285D01*
X126992095Y-121991523D01*
%TO.C,R9*%
X135365833Y-134690380D02*
X135032500Y-134214190D01*
X134794404Y-134690380D02*
X134794404Y-133690380D01*
X135175357Y-133690380D01*
X135270595Y-133738000D01*
X135318214Y-133785619D01*
X135365833Y-133880857D01*
X135365833Y-134023714D01*
X135318214Y-134118952D01*
X135270595Y-134166571D01*
X135175357Y-134214190D01*
X134794404Y-134214190D01*
X135842023Y-134690380D02*
X136032500Y-134690380D01*
X136127738Y-134642761D01*
X136175357Y-134595142D01*
X136270595Y-134452285D01*
X136318214Y-134261809D01*
X136318214Y-133880857D01*
X136270595Y-133785619D01*
X136222976Y-133738000D01*
X136127738Y-133690380D01*
X135937261Y-133690380D01*
X135842023Y-133738000D01*
X135794404Y-133785619D01*
X135746785Y-133880857D01*
X135746785Y-134118952D01*
X135794404Y-134214190D01*
X135842023Y-134261809D01*
X135937261Y-134309428D01*
X136127738Y-134309428D01*
X136222976Y-134261809D01*
X136270595Y-134214190D01*
X136318214Y-134118952D01*
%TO.C,U1*%
X123698095Y-134297380D02*
X123698095Y-135106904D01*
X123745714Y-135202142D01*
X123793333Y-135249761D01*
X123888571Y-135297380D01*
X124079047Y-135297380D01*
X124174285Y-135249761D01*
X124221904Y-135202142D01*
X124269523Y-135106904D01*
X124269523Y-134297380D01*
X125269523Y-135297380D02*
X124698095Y-135297380D01*
X124983809Y-135297380D02*
X124983809Y-134297380D01*
X124888571Y-134440238D01*
X124793333Y-134535476D01*
X124698095Y-134583095D01*
%TO.C,C4*%
X135403333Y-125071142D02*
X135355714Y-125118761D01*
X135212857Y-125166380D01*
X135117619Y-125166380D01*
X134974761Y-125118761D01*
X134879523Y-125023523D01*
X134831904Y-124928285D01*
X134784285Y-124737809D01*
X134784285Y-124594952D01*
X134831904Y-124404476D01*
X134879523Y-124309238D01*
X134974761Y-124214000D01*
X135117619Y-124166380D01*
X135212857Y-124166380D01*
X135355714Y-124214000D01*
X135403333Y-124261619D01*
X136260476Y-124499714D02*
X136260476Y-125166380D01*
X136022380Y-124118761D02*
X135784285Y-124833047D01*
X136403333Y-124833047D01*
%TO.C,C5*%
X159345333Y-108307142D02*
X159297714Y-108354761D01*
X159154857Y-108402380D01*
X159059619Y-108402380D01*
X158916761Y-108354761D01*
X158821523Y-108259523D01*
X158773904Y-108164285D01*
X158726285Y-107973809D01*
X158726285Y-107830952D01*
X158773904Y-107640476D01*
X158821523Y-107545238D01*
X158916761Y-107450000D01*
X159059619Y-107402380D01*
X159154857Y-107402380D01*
X159297714Y-107450000D01*
X159345333Y-107497619D01*
X160250095Y-107402380D02*
X159773904Y-107402380D01*
X159726285Y-107878571D01*
X159773904Y-107830952D01*
X159869142Y-107783333D01*
X160107238Y-107783333D01*
X160202476Y-107830952D01*
X160250095Y-107878571D01*
X160297714Y-107973809D01*
X160297714Y-108211904D01*
X160250095Y-108307142D01*
X160202476Y-108354761D01*
X160107238Y-108402380D01*
X159869142Y-108402380D01*
X159773904Y-108354761D01*
X159726285Y-108307142D01*
D11*
%TO.C,J3*%
X142932000Y-116840000D02*
G75*
G03*
X142932000Y-116840000I-1200000J0D01*
G01*
%TO.C,R3*%
X136684000Y-110590000D02*
X143224000Y-110590000D01*
X136684000Y-107850000D02*
X136684000Y-110590000D01*
X143224000Y-107850000D02*
X136684000Y-107850000D01*
X135914000Y-109220000D02*
X136684000Y-109220000D01*
X143224000Y-110590000D02*
X143224000Y-107850000D01*
X143994000Y-109220000D02*
X143224000Y-109220000D01*
%TO.C,C2*%
X140911252Y-133323000D02*
X140388748Y-133323000D01*
X140911252Y-131853000D02*
X140388748Y-131853000D01*
%TO.C,R1*%
X121385000Y-122200936D02*
X121385000Y-122655064D01*
X119915000Y-122200936D02*
X119915000Y-122655064D01*
%TO.C,C7*%
X122201000Y-117152748D02*
X122201000Y-117675252D01*
X123671000Y-117152748D02*
X123671000Y-117675252D01*
%TO.C,R6*%
X158523000Y-113614564D02*
X158523000Y-113160436D01*
X159993000Y-113614564D02*
X159993000Y-113160436D01*
%TO.C,R5*%
X135636000Y-121896000D02*
X135636000Y-121126000D01*
X134266000Y-121126000D02*
X137006000Y-121126000D01*
X137006000Y-121126000D02*
X137006000Y-114586000D01*
X135636000Y-113816000D02*
X135636000Y-114586000D01*
X134266000Y-114586000D02*
X134266000Y-121126000D01*
X137006000Y-114586000D02*
X134266000Y-114586000D01*
%TO.C,R12*%
X119915000Y-117271436D02*
X119915000Y-117725564D01*
X121385000Y-117271436D02*
X121385000Y-117725564D01*
%TO.C,U3*%
X152908000Y-111994000D02*
X154858000Y-111994000D01*
X152908000Y-117114000D02*
X150958000Y-117114000D01*
X152908000Y-117114000D02*
X154858000Y-117114000D01*
X152908000Y-111994000D02*
X149458000Y-111994000D01*
%TO.C,R10*%
X136879000Y-129209436D02*
X136879000Y-129663564D01*
X135409000Y-129209436D02*
X135409000Y-129663564D01*
%TO.C,C6*%
X122201000Y-122755252D02*
X122201000Y-122232748D01*
X123671000Y-122755252D02*
X123671000Y-122232748D01*
%TO.C,R8*%
X130679564Y-125630000D02*
X130225436Y-125630000D01*
X130679564Y-127100000D02*
X130225436Y-127100000D01*
%TO.C,R7*%
X126314564Y-127100000D02*
X125860436Y-127100000D01*
X126314564Y-125630000D02*
X125860436Y-125630000D01*
%TO.C,R4*%
X146180436Y-114581000D02*
X146634564Y-114581000D01*
X146180436Y-116051000D02*
X146634564Y-116051000D01*
%TO.C,C3*%
X130756252Y-128805000D02*
X130233748Y-128805000D01*
X130756252Y-130275000D02*
X130233748Y-130275000D01*
%TO.C,C1*%
X130802504Y-132018748D02*
X130280000Y-132018748D01*
X130802504Y-133488748D02*
X130280000Y-133488748D01*
%TO.C,J2*%
X123480000Y-142030000D02*
X123480000Y-141030000D01*
X140980000Y-141030000D02*
X138380000Y-141030000D01*
X123480000Y-141030000D02*
X120880000Y-141030000D01*
X120270000Y-149140000D02*
X143890000Y-149140000D01*
X143280000Y-142030000D02*
X140980000Y-142030000D01*
X120880000Y-147530000D02*
X143280000Y-147530000D01*
X120270000Y-140420000D02*
X120270000Y-149140000D01*
X144190000Y-147030000D02*
X144190000Y-149440000D01*
X143890000Y-149140000D02*
X143890000Y-140420000D01*
X143280000Y-147530000D02*
X143280000Y-142030000D01*
X138380000Y-141030000D02*
X138380000Y-142030000D01*
X138380000Y-142030000D02*
X123480000Y-142030000D01*
X120880000Y-141030000D02*
X120880000Y-147530000D01*
X144190000Y-149440000D02*
X141780000Y-149440000D01*
X143890000Y-140420000D02*
X120270000Y-140420000D01*
X140980000Y-142030000D02*
X140980000Y-141030000D01*
%TO.C,R2*%
X125957000Y-117575064D02*
X125957000Y-117120936D01*
X124487000Y-117575064D02*
X124487000Y-117120936D01*
%TO.C,U2*%
X141732000Y-125456000D02*
X143682000Y-125456000D01*
X141732000Y-130576000D02*
X143682000Y-130576000D01*
X141732000Y-125456000D02*
X138282000Y-125456000D01*
X141732000Y-130576000D02*
X139782000Y-130576000D01*
%TO.C,J1*%
X116138000Y-120650000D02*
X113478000Y-120650000D01*
X116138000Y-121920000D02*
X116138000Y-123250000D01*
X116138000Y-120650000D02*
X116138000Y-115510000D01*
X113478000Y-120650000D02*
X113478000Y-115510000D01*
X116138000Y-115510000D02*
X113478000Y-115510000D01*
X116138000Y-123250000D02*
X114808000Y-123250000D01*
%TO.C,R11*%
X124370000Y-122655064D02*
X124370000Y-122200936D01*
X125840000Y-122655064D02*
X125840000Y-122200936D01*
%TO.C,R9*%
X135759564Y-131853000D02*
X135305436Y-131853000D01*
X135759564Y-133323000D02*
X135305436Y-133323000D01*
%TO.C,U1*%
X124460000Y-134005000D02*
X127910000Y-134005000D01*
X124460000Y-134005000D02*
X122510000Y-134005000D01*
X124460000Y-128885000D02*
X122510000Y-128885000D01*
X124460000Y-128885000D02*
X126410000Y-128885000D01*
%TO.C,C4*%
X135831252Y-127227000D02*
X135308748Y-127227000D01*
X135831252Y-125757000D02*
X135308748Y-125757000D01*
%TO.C,C5*%
X157520000Y-107850000D02*
X147280000Y-107850000D01*
X147280000Y-110590000D02*
X147280000Y-107850000D01*
X157520000Y-110590000D02*
X147280000Y-110590000D01*
X157520000Y-110590000D02*
X157520000Y-107850000D01*
%TD*%
M02*
