%TF.GenerationSoftware,KiCad,Pcbnew,(6.0.10)*%
%TF.CreationDate,2023-03-20T11:55:26+01:00*%
%TF.ProjectId,616_buffer,3631365f-6275-4666-9665-722e6b696361,rev?*%
%TF.SameCoordinates,Original*%
%TF.FileFunction,Copper,L1,Top*%
%TF.FilePolarity,Positive*%
%FSLAX46Y46*%
G04 Gerber Fmt 4.6, Leading zero omitted, Abs format (unit mm)*
G04 Created by KiCad (PCBNEW (6.0.10)) date 2023-03-20 11:55:26*
%MOMM*%
%LPD*%
G01*
G04 APERTURE LIST*
G04 Aperture macros list*
%AMRoundRect*
0 Rectangle with rounded corners*
0 $1 Rounding radius*
0 $2 $3 $4 $5 $6 $7 $8 $9 X,Y pos of 4 corners*
0 Add a 4 corners polygon primitive as box body*
4,1,4,$2,$3,$4,$5,$6,$7,$8,$9,$2,$3,0*
0 Add four circle primitives for the rounded corners*
1,1,$1+$1,$2,$3*
1,1,$1+$1,$4,$5*
1,1,$1+$1,$6,$7*
1,1,$1+$1,$8,$9*
0 Add four rect primitives between the rounded corners*
20,1,$1+$1,$2,$3,$4,$5,0*
20,1,$1+$1,$4,$5,$6,$7,0*
20,1,$1+$1,$6,$7,$8,$9,0*
20,1,$1+$1,$8,$9,$2,$3,0*%
G04 Aperture macros list end*
%TA.AperFunction,ComponentPad*%
%ADD10C,1.600000*%
%TD*%
%TA.AperFunction,ComponentPad*%
%ADD11O,1.600000X1.600000*%
%TD*%
%TA.AperFunction,SMDPad,CuDef*%
%ADD12RoundRect,0.250000X0.250000X0.475000X-0.250000X0.475000X-0.250000X-0.475000X0.250000X-0.475000X0*%
%TD*%
%TA.AperFunction,SMDPad,CuDef*%
%ADD13RoundRect,0.250000X-0.450000X0.262500X-0.450000X-0.262500X0.450000X-0.262500X0.450000X0.262500X0*%
%TD*%
%TA.AperFunction,SMDPad,CuDef*%
%ADD14RoundRect,0.250000X-0.475000X0.250000X-0.475000X-0.250000X0.475000X-0.250000X0.475000X0.250000X0*%
%TD*%
%TA.AperFunction,SMDPad,CuDef*%
%ADD15RoundRect,0.250000X0.450000X-0.262500X0.450000X0.262500X-0.450000X0.262500X-0.450000X-0.262500X0*%
%TD*%
%TA.AperFunction,SMDPad,CuDef*%
%ADD16RoundRect,0.150000X-0.825000X-0.150000X0.825000X-0.150000X0.825000X0.150000X-0.825000X0.150000X0*%
%TD*%
%TA.AperFunction,SMDPad,CuDef*%
%ADD17RoundRect,0.250000X0.475000X-0.250000X0.475000X0.250000X-0.475000X0.250000X-0.475000X-0.250000X0*%
%TD*%
%TA.AperFunction,SMDPad,CuDef*%
%ADD18RoundRect,0.250000X0.262500X0.450000X-0.262500X0.450000X-0.262500X-0.450000X0.262500X-0.450000X0*%
%TD*%
%TA.AperFunction,SMDPad,CuDef*%
%ADD19C,2.000000*%
%TD*%
%TA.AperFunction,SMDPad,CuDef*%
%ADD20RoundRect,0.250000X-0.262500X-0.450000X0.262500X-0.450000X0.262500X0.450000X-0.262500X0.450000X0*%
%TD*%
%TA.AperFunction,SMDPad,CuDef*%
%ADD21RoundRect,0.500000X0.500000X2.500000X-0.500000X2.500000X-0.500000X-2.500000X0.500000X-2.500000X0*%
%TD*%
%TA.AperFunction,ComponentPad*%
%ADD22R,1.700000X1.700000*%
%TD*%
%TA.AperFunction,ComponentPad*%
%ADD23O,1.700000X1.700000*%
%TD*%
%TA.AperFunction,SMDPad,CuDef*%
%ADD24RoundRect,0.150000X0.825000X0.150000X-0.825000X0.150000X-0.825000X-0.150000X0.825000X-0.150000X0*%
%TD*%
%TA.AperFunction,ComponentPad*%
%ADD25C,2.000000*%
%TD*%
%TA.AperFunction,Conductor*%
%ADD26C,0.600000*%
%TD*%
%TA.AperFunction,Conductor*%
%ADD27C,1.000000*%
%TD*%
%TA.AperFunction,Conductor*%
%ADD28C,0.400000*%
%TD*%
%TA.AperFunction,Conductor*%
%ADD29C,0.200000*%
%TD*%
G04 APERTURE END LIST*
D10*
%TO.P,R3,1*%
%TO.N,Net-(R3-Pad1)*%
X134874000Y-109220000D03*
D11*
%TO.P,R3,2*%
%TO.N,Net-(C5-Pad2)*%
X145034000Y-109220000D03*
%TD*%
D12*
%TO.P,C2,1*%
%TO.N,Net-(C2-Pad1)*%
X141600000Y-132588000D03*
%TO.P,C2,2*%
%TO.N,/C*%
X139700000Y-132588000D03*
%TD*%
D13*
%TO.P,R1,1*%
%TO.N,Net-(C6-Pad2)*%
X120650000Y-121515500D03*
%TO.P,R1,2*%
%TO.N,Net-(C3-Pad2)*%
X120650000Y-123340500D03*
%TD*%
D14*
%TO.P,C7,1*%
%TO.N,Net-(C7-Pad1)*%
X122936000Y-116464000D03*
%TO.P,C7,2*%
%TO.N,/C*%
X122936000Y-118364000D03*
%TD*%
D15*
%TO.P,R6,1*%
%TO.N,Net-(J2-Pad1)*%
X159258000Y-114300000D03*
%TO.P,R6,2*%
%TO.N,Net-(C5-Pad1)*%
X159258000Y-112475000D03*
%TD*%
D10*
%TO.P,R5,1*%
%TO.N,/C*%
X135636000Y-122936000D03*
D11*
%TO.P,R5,2*%
%TO.N,Net-(C5-Pad2)*%
X135636000Y-112776000D03*
%TD*%
D13*
%TO.P,R12,1*%
%TO.N,Net-(C7-Pad1)*%
X120650000Y-116586000D03*
%TO.P,R12,2*%
%TO.N,/C*%
X120650000Y-118411000D03*
%TD*%
D16*
%TO.P,U3,1,BAL*%
%TO.N,unconnected-(U3-Pad1)*%
X150433000Y-112649000D03*
%TO.P,U3,2,-*%
%TO.N,Net-(C5-Pad2)*%
X150433000Y-113919000D03*
%TO.P,U3,3,+*%
%TO.N,Net-(R4-Pad2)*%
X150433000Y-115189000D03*
%TO.P,U3,4,V-*%
%TO.N,Net-(C4-Pad1)*%
X150433000Y-116459000D03*
%TO.P,U3,5,COMP*%
%TO.N,unconnected-(U3-Pad5)*%
X155383000Y-116459000D03*
%TO.P,U3,6*%
%TO.N,Net-(J2-Pad1)*%
X155383000Y-115189000D03*
%TO.P,U3,7,V+*%
%TO.N,Net-(C3-Pad2)*%
X155383000Y-113919000D03*
%TO.P,U3,8,C/B*%
%TO.N,unconnected-(U3-Pad8)*%
X155383000Y-112649000D03*
%TD*%
D13*
%TO.P,R10,1*%
%TO.N,Net-(C4-Pad1)*%
X136144000Y-128524000D03*
%TO.P,R10,2*%
%TO.N,Net-(R10-Pad2)*%
X136144000Y-130349000D03*
%TD*%
D17*
%TO.P,C6,1*%
%TO.N,/C*%
X122936000Y-123444000D03*
%TO.P,C6,2*%
%TO.N,Net-(C6-Pad2)*%
X122936000Y-121544000D03*
%TD*%
D18*
%TO.P,R8,1*%
%TO.N,/C*%
X131365000Y-126365000D03*
%TO.P,R8,2*%
%TO.N,Net-(R7-Pad1)*%
X129540000Y-126365000D03*
%TD*%
D19*
%TO.P,J3,1,Pin_1*%
%TO.N,Net-(J3-Pad1)*%
X141732000Y-116840000D03*
%TD*%
D18*
%TO.P,R7,1*%
%TO.N,Net-(R7-Pad1)*%
X127000000Y-126365000D03*
%TO.P,R7,2*%
%TO.N,Net-(C3-Pad2)*%
X125175000Y-126365000D03*
%TD*%
D20*
%TO.P,R4,1*%
%TO.N,Net-(J3-Pad1)*%
X145495000Y-115316000D03*
%TO.P,R4,2*%
%TO.N,Net-(R4-Pad2)*%
X147320000Y-115316000D03*
%TD*%
D12*
%TO.P,C3,1*%
%TO.N,/C*%
X131445000Y-129540000D03*
%TO.P,C3,2*%
%TO.N,Net-(C3-Pad2)*%
X129545000Y-129540000D03*
%TD*%
%TO.P,C1,1*%
%TO.N,/C*%
X131491252Y-132753748D03*
%TO.P,C1,2*%
%TO.N,Net-(C1-Pad2)*%
X129591252Y-132753748D03*
%TD*%
D21*
%TO.P,J2,1,Pin_1*%
%TO.N,Net-(J2-Pad1)*%
X140980000Y-144880000D03*
%TO.P,J2,2,Pin_2*%
%TO.N,Net-(C2-Pad1)*%
X137480000Y-144880000D03*
%TO.P,J2,3,Pin_3*%
%TO.N,unconnected-(J2-Pad3)*%
X133980000Y-144880000D03*
%TO.P,J2,4,Pin_4*%
%TO.N,/C*%
X130480000Y-144880000D03*
%TO.P,J2,5,Pin_5*%
%TO.N,Net-(C1-Pad2)*%
X126980000Y-144880000D03*
%TO.P,J2,6,Pin_6*%
%TO.N,unconnected-(J2-Pad6)*%
X123480000Y-144880000D03*
%TD*%
D15*
%TO.P,R2,1*%
%TO.N,Net-(C4-Pad1)*%
X125222000Y-118260500D03*
%TO.P,R2,2*%
%TO.N,Net-(C7-Pad1)*%
X125222000Y-116435500D03*
%TD*%
D16*
%TO.P,U2,1,VO*%
%TO.N,Net-(C4-Pad1)*%
X139257000Y-126111000D03*
%TO.P,U2,2,VI*%
%TO.N,Net-(C2-Pad1)*%
X139257000Y-127381000D03*
%TO.P,U2,3,VI*%
X139257000Y-128651000D03*
%TO.P,U2,4,ADJ*%
%TO.N,Net-(R10-Pad2)*%
X139257000Y-129921000D03*
%TO.P,U2,5,NC*%
%TO.N,unconnected-(U2-Pad5)*%
X144207000Y-129921000D03*
%TO.P,U2,6,VI*%
%TO.N,Net-(C2-Pad1)*%
X144207000Y-128651000D03*
%TO.P,U2,7,VI*%
X144207000Y-127381000D03*
%TO.P,U2,8,NC*%
%TO.N,unconnected-(U2-Pad8)*%
X144207000Y-126111000D03*
%TD*%
D22*
%TO.P,J1,1,Pin_1*%
%TO.N,Net-(R3-Pad1)*%
X114808000Y-121920000D03*
D23*
%TO.P,J1,2,Pin_2*%
%TO.N,Net-(C6-Pad2)*%
X114808000Y-119380000D03*
%TO.P,J1,3,Pin_3*%
%TO.N,Net-(C7-Pad1)*%
X114808000Y-116840000D03*
%TD*%
D15*
%TO.P,R11,1*%
%TO.N,/C*%
X125105000Y-123340500D03*
%TO.P,R11,2*%
%TO.N,Net-(C6-Pad2)*%
X125105000Y-121515500D03*
%TD*%
D18*
%TO.P,R9,1*%
%TO.N,Net-(R10-Pad2)*%
X136445000Y-132588000D03*
%TO.P,R9,2*%
%TO.N,/C*%
X134620000Y-132588000D03*
%TD*%
D24*
%TO.P,U1,1,VI*%
%TO.N,Net-(C1-Pad2)*%
X126935000Y-133350000D03*
%TO.P,U1,2,VO*%
%TO.N,Net-(C3-Pad2)*%
X126935000Y-132080000D03*
%TO.P,U1,3,VO*%
X126935000Y-130810000D03*
%TO.P,U1,4,ADJ*%
%TO.N,Net-(R7-Pad1)*%
X126935000Y-129540000D03*
%TO.P,U1,5,NC*%
%TO.N,unconnected-(U1-Pad5)*%
X121985000Y-129540000D03*
%TO.P,U1,6,VO*%
%TO.N,Net-(C3-Pad2)*%
X121985000Y-130810000D03*
%TO.P,U1,7,VO*%
X121985000Y-132080000D03*
%TO.P,U1,8,NC*%
%TO.N,unconnected-(U1-Pad8)*%
X121985000Y-133350000D03*
%TD*%
D12*
%TO.P,C4,1*%
%TO.N,Net-(C4-Pad1)*%
X136520000Y-126492000D03*
%TO.P,C4,2*%
%TO.N,/C*%
X134620000Y-126492000D03*
%TD*%
D25*
%TO.P,C5,1*%
%TO.N,Net-(C5-Pad1)*%
X156150000Y-109220000D03*
%TO.P,C5,2*%
%TO.N,Net-(C5-Pad2)*%
X148650000Y-109220000D03*
%TD*%
D26*
%TO.N,Net-(R3-Pad1)*%
X113284000Y-121920000D02*
X114808000Y-121920000D01*
X135128000Y-107950000D02*
X134874000Y-107696000D01*
X135128000Y-108966000D02*
X135128000Y-107950000D01*
X134874000Y-107696000D02*
X119888000Y-107696000D01*
X119888000Y-107696000D02*
X112014000Y-115570000D01*
X112014000Y-115570000D02*
X112014000Y-120650000D01*
X112014000Y-120650000D02*
X113284000Y-121920000D01*
X134874000Y-109220000D02*
X135128000Y-108966000D01*
%TO.N,Net-(C6-Pad2)*%
X119483500Y-121515500D02*
X120650000Y-121515500D01*
X114808000Y-119380000D02*
X117348000Y-119380000D01*
X117348000Y-119380000D02*
X119483500Y-121515500D01*
%TO.N,/C*%
X131491252Y-132753748D02*
X131491252Y-133015252D01*
D27*
X123698000Y-119888000D02*
X127000000Y-119888000D01*
D26*
X133096000Y-124460000D02*
X132715000Y-124079000D01*
X120650000Y-118411000D02*
X122889000Y-118411000D01*
X133096000Y-134112000D02*
X133096000Y-134620000D01*
X131491252Y-133015252D02*
X133096000Y-134620000D01*
X131445000Y-126445000D02*
X131365000Y-126365000D01*
D27*
X127000000Y-119888000D02*
X130452500Y-123340500D01*
D26*
X131491252Y-132753748D02*
X131491252Y-129586252D01*
X137668000Y-135128000D02*
X133604000Y-135128000D01*
X125763500Y-123444000D02*
X125867000Y-123340500D01*
X134620000Y-132588000D02*
X133096000Y-134112000D01*
X122936000Y-118364000D02*
X123444000Y-118872000D01*
D27*
X125867000Y-123340500D02*
X131421500Y-123340500D01*
D26*
X123210000Y-123444000D02*
X125763500Y-123444000D01*
X133096000Y-135128000D02*
X133096000Y-134620000D01*
X122889000Y-118411000D02*
X122936000Y-118364000D01*
X130452500Y-123340500D02*
X131421500Y-123340500D01*
X134620000Y-129540000D02*
X134620000Y-126492000D01*
X131421500Y-123340500D02*
X131976500Y-123340500D01*
X137668000Y-134620000D02*
X137668000Y-135128000D01*
D27*
X133096000Y-134620000D02*
X133096000Y-124460000D01*
X130480000Y-137744000D02*
X133096000Y-135128000D01*
D26*
X133604000Y-135128000D02*
X133096000Y-134620000D01*
X123444000Y-118872000D02*
X123444000Y-119634000D01*
X133858000Y-122936000D02*
X132715000Y-124079000D01*
X135636000Y-122936000D02*
X133858000Y-122936000D01*
X134620000Y-132588000D02*
X134620000Y-129540000D01*
X131491252Y-129586252D02*
X131445000Y-129540000D01*
X123444000Y-119634000D02*
X123698000Y-119888000D01*
X131445000Y-129540000D02*
X131445000Y-126445000D01*
D27*
X130480000Y-144880000D02*
X130480000Y-137744000D01*
X132715000Y-124079000D02*
X131976500Y-123340500D01*
D26*
X139700000Y-132588000D02*
X137668000Y-134620000D01*
D27*
%TO.N,Net-(C1-Pad2)*%
X126980000Y-144880000D02*
X126980000Y-133395000D01*
D26*
X126980000Y-133395000D02*
X126935000Y-133350000D01*
X128995000Y-133350000D02*
X129591252Y-132753748D01*
X126935000Y-133350000D02*
X128995000Y-133350000D01*
D27*
%TO.N,Net-(C2-Pad1)*%
X137480000Y-138364000D02*
X141732000Y-134112000D01*
D26*
X141732000Y-132720000D02*
X141600000Y-132588000D01*
X144207000Y-127381000D02*
X144207000Y-128651000D01*
X141351000Y-127381000D02*
X144207000Y-127381000D01*
X141732000Y-134112000D02*
X141732000Y-132720000D01*
X139257000Y-127381000D02*
X141351000Y-127381000D01*
D27*
X141600000Y-132588000D02*
X141600000Y-127630000D01*
D26*
X141600000Y-127630000D02*
X141351000Y-127381000D01*
D27*
X137480000Y-144880000D02*
X137480000Y-138364000D01*
D26*
X139257000Y-128651000D02*
X139257000Y-127381000D01*
%TO.N,Net-(C3-Pad2)*%
X156718000Y-111252000D02*
X157480000Y-112014000D01*
X128275000Y-130810000D02*
X129545000Y-129540000D01*
X154940000Y-111252000D02*
X156718000Y-111252000D01*
X115570000Y-106680000D02*
X151384000Y-106680000D01*
X110490000Y-121412000D02*
X114046000Y-124968000D01*
X126935000Y-130810000D02*
X126935000Y-132080000D01*
X114046000Y-124968000D02*
X119022500Y-124968000D01*
X151384000Y-106680000D02*
X153670000Y-108966000D01*
X123016000Y-126365000D02*
X120396000Y-123745000D01*
X125175000Y-126365000D02*
X124587000Y-126365000D01*
X121985000Y-132080000D02*
X121985000Y-130810000D01*
X125175000Y-126365000D02*
X123016000Y-126365000D01*
X119022500Y-124968000D02*
X120650000Y-123340500D01*
X153670000Y-108966000D02*
X153670000Y-109982000D01*
X156337000Y-113919000D02*
X157480000Y-112776000D01*
X126935000Y-130810000D02*
X128275000Y-130810000D01*
X153670000Y-109982000D02*
X154940000Y-111252000D01*
X110490000Y-111760000D02*
X110490000Y-121412000D01*
X124587000Y-126365000D02*
X124460000Y-126492000D01*
X121985000Y-130810000D02*
X126935000Y-130810000D01*
X110490000Y-111760000D02*
X115570000Y-106680000D01*
X155383000Y-113919000D02*
X156337000Y-113919000D01*
X157480000Y-112776000D02*
X157480000Y-112014000D01*
X124460000Y-126492000D02*
X124460000Y-130556000D01*
%TO.N,Net-(C4-Pad1)*%
X150433000Y-117791000D02*
X143510000Y-124714000D01*
X136652000Y-120650000D02*
X137668000Y-121666000D01*
X132842000Y-120650000D02*
X136652000Y-120650000D01*
X137028000Y-125984000D02*
X139130000Y-125984000D01*
X137668000Y-121666000D02*
X137668000Y-124714000D01*
X137668000Y-124714000D02*
X137668000Y-125344000D01*
X150433000Y-116459000D02*
X150433000Y-117791000D01*
X130584500Y-118260500D02*
X130584500Y-118392500D01*
X125222000Y-118260500D02*
X130584500Y-118260500D01*
X130584500Y-118392500D02*
X132842000Y-120650000D01*
X143510000Y-124714000D02*
X137668000Y-124714000D01*
X136520000Y-126492000D02*
X137028000Y-125984000D01*
X136520000Y-126492000D02*
X136520000Y-128148000D01*
X139130000Y-125984000D02*
X139257000Y-126111000D01*
X137668000Y-125344000D02*
X136520000Y-126492000D01*
X136520000Y-128148000D02*
X136144000Y-128524000D01*
%TO.N,Net-(C5-Pad1)*%
X159258000Y-110744000D02*
X157734000Y-109220000D01*
X159258000Y-112475000D02*
X159258000Y-110744000D01*
X157734000Y-109220000D02*
X156150000Y-109220000D01*
D28*
%TO.N,Net-(C5-Pad2)*%
X151765000Y-113919000D02*
X152146000Y-114300000D01*
D26*
X147477000Y-110393000D02*
X148650000Y-109220000D01*
D28*
X152146000Y-114300000D02*
X152146000Y-115316000D01*
D29*
X148844000Y-115824000D02*
X148590000Y-116078000D01*
D26*
X147477000Y-112365000D02*
X147477000Y-110393000D01*
D28*
X148590000Y-116078000D02*
X148590000Y-117856000D01*
X136144000Y-114808000D02*
X138430000Y-112522000D01*
D26*
X149225000Y-113919000D02*
X148336000Y-113030000D01*
D28*
X138430000Y-112522000D02*
X144526000Y-112522000D01*
X139192000Y-120904000D02*
X136144000Y-117856000D01*
D29*
X147477000Y-112365000D02*
X147320000Y-112522000D01*
D26*
X148336000Y-113030000D02*
X148142000Y-113030000D01*
X140208000Y-109220000D02*
X145034000Y-109220000D01*
X148142000Y-113030000D02*
X147477000Y-112365000D01*
D29*
X152146000Y-115316000D02*
X151638000Y-115824000D01*
D26*
X150433000Y-113919000D02*
X149225000Y-113919000D01*
D28*
X148590000Y-117856000D02*
X145542000Y-120904000D01*
X150433000Y-113919000D02*
X151765000Y-113919000D01*
D26*
X135636000Y-112776000D02*
X138176000Y-110236000D01*
D28*
X136144000Y-117856000D02*
X136144000Y-114808000D01*
D26*
X145034000Y-109220000D02*
X148650000Y-109220000D01*
D29*
X151638000Y-115824000D02*
X148844000Y-115824000D01*
D28*
X145542000Y-120904000D02*
X139192000Y-120904000D01*
D26*
X139192000Y-110236000D02*
X140208000Y-109220000D01*
X138176000Y-110236000D02*
X139192000Y-110236000D01*
D28*
X147320000Y-112522000D02*
X144780000Y-112522000D01*
D26*
%TO.N,Net-(C6-Pad2)*%
X120396000Y-121920000D02*
X122834000Y-121920000D01*
X123210000Y-121544000D02*
X125838500Y-121544000D01*
X125838500Y-121544000D02*
X125867000Y-121515500D01*
X122834000Y-121920000D02*
X123210000Y-121544000D01*
%TO.N,Net-(C7-Pad1)*%
X117348000Y-116078000D02*
X120142000Y-116078000D01*
X122814000Y-116586000D02*
X122936000Y-116464000D01*
X122964500Y-116435500D02*
X122936000Y-116464000D01*
X120650000Y-116586000D02*
X122814000Y-116586000D01*
X120142000Y-116078000D02*
X120650000Y-116586000D01*
X114808000Y-116840000D02*
X116586000Y-116840000D01*
X125222000Y-116435500D02*
X122964500Y-116435500D01*
X116586000Y-116840000D02*
X117348000Y-116078000D01*
%TO.N,Net-(J2-Pad1)*%
X157734000Y-119126000D02*
X146050000Y-135128000D01*
X157861000Y-115189000D02*
X157988000Y-115316000D01*
X158496000Y-114300000D02*
X157607000Y-115189000D01*
X140970000Y-138938000D02*
X140980000Y-144880000D01*
X155383000Y-115189000D02*
X157861000Y-115189000D01*
X146050000Y-135128000D02*
X140970000Y-138938000D01*
X157607000Y-115189000D02*
X155383000Y-115189000D01*
X157988000Y-115316000D02*
X157734000Y-119126000D01*
%TO.N,Net-(J3-Pad1)*%
X145495000Y-115316000D02*
X143256000Y-115316000D01*
X143256000Y-115316000D02*
X141732000Y-116840000D01*
%TO.N,Net-(R4-Pad2)*%
X150433000Y-115189000D02*
X147447000Y-115189000D01*
X147447000Y-115189000D02*
X147320000Y-115316000D01*
%TO.N,Net-(R7-Pad1)*%
X126935000Y-126430000D02*
X127000000Y-126365000D01*
X126935000Y-129540000D02*
X126935000Y-126430000D01*
X127000000Y-126365000D02*
X129540000Y-126365000D01*
%TO.N,Net-(R10-Pad2)*%
X138829000Y-130349000D02*
X139257000Y-129921000D01*
X136445000Y-130650000D02*
X136144000Y-130349000D01*
X136144000Y-130349000D02*
X138829000Y-130349000D01*
X136445000Y-132588000D02*
X136445000Y-130650000D01*
%TD*%
M02*
